<svg id="圖層_1" data-name="圖層 1" xmlns="http://www.w3.org/2000/svg" viewBox="0 0 385 84"><defs><style>.cls-1{fill:#323333;}</style></defs><title>工作區域 3</title><path class="cls-1" d="M49.37,53.94a15.35,15.35,0,0,1-.61,4.45A13.06,13.06,0,0,1,47,62a12.47,12.47,0,0,1-2.67,2.85A15.07,15.07,0,0,1,40.85,67a20.6,20.6,0,0,1-4.19,1.25,28.93,28.93,0,0,1-5.12.41H18.17A2.78,2.78,0,0,1,16.45,68a2.55,2.55,0,0,1-.81-2.16V20.2A2.55,2.55,0,0,1,16.45,18a2.85,2.85,0,0,1,1.72-.61H29.8a27,27,0,0,1,7.51.87,13.48,13.48,0,0,1,4.89,2.53,10.54,10.54,0,0,1,2.94,4.08,14.23,14.23,0,0,1,1,5.45,13.6,13.6,0,0,1-.43,3.48,11.47,11.47,0,0,1-1.29,3.07,10.41,10.41,0,0,1-2.14,2.51,10.94,10.94,0,0,1-2.94,1.82,12.51,12.51,0,0,1,3.91,1.44,11.86,11.86,0,0,1,3.19,2.67,12.6,12.6,0,0,1,2.15,3.8A13.87,13.87,0,0,1,49.37,53.94ZM39.13,31a10.5,10.5,0,0,0-.51-3.37A6.3,6.3,0,0,0,37,25.12a7.41,7.41,0,0,0-2.88-1.6,16.25,16.25,0,0,0-4.7-.55h-7V39.54h7.73a11,11,0,0,0,4.26-.69A7.61,7.61,0,0,0,37.08,37a7.27,7.27,0,0,0,1.56-2.73A10.61,10.61,0,0,0,39.13,31Zm3.08,23.29a10.28,10.28,0,0,0-.73-4,7.53,7.53,0,0,0-2.13-2.93,9.39,9.39,0,0,0-3.51-1.8A19.38,19.38,0,0,0,30.53,45H22.4V63h9.87a13.34,13.34,0,0,0,4.06-.55,9.2,9.2,0,0,0,3.06-1.64,7.63,7.63,0,0,0,2.07-2.71A8.85,8.85,0,0,0,42.21,54.33Z"/><path class="cls-1" d="M66.22,20a4.32,4.32,0,0,1-.87,3.13,4.7,4.7,0,0,1-3.2.83A4.62,4.62,0,0,1,59,23.15a4.27,4.27,0,0,1-.85-3.07A4.28,4.28,0,0,1,59,17a4.66,4.66,0,0,1,3.21-.83,4.59,4.59,0,0,1,3.14.81A4.19,4.19,0,0,1,66.22,20Zm-.75,47.62a.89.89,0,0,1-.16.54,1.16,1.16,0,0,1-.51.37,3.41,3.41,0,0,1-1,.24,14,14,0,0,1-1.62.08,13.66,13.66,0,0,1-1.58-.08,3.56,3.56,0,0,1-1-.24,1.14,1.14,0,0,1-.52-.37,1,1,0,0,1-.14-.54V32a.91.91,0,0,1,.66-.91,3.56,3.56,0,0,1,1-.24,13.66,13.66,0,0,1,1.58-.08,14,14,0,0,1,1.62.08,3.41,3.41,0,0,1,1,.24,1.05,1.05,0,0,1,.51.39.89.89,0,0,1,.16.52Z"/><path class="cls-1" d="M84.06,67.62a.89.89,0,0,1-.16.54,1.16,1.16,0,0,1-.51.37,3.41,3.41,0,0,1-1,.24,14,14,0,0,1-1.62.08,13.53,13.53,0,0,1-1.58-.08,3.56,3.56,0,0,1-1-.24,1.09,1.09,0,0,1-.52-.37,1,1,0,0,1-.14-.54V14.78a1.1,1.1,0,0,1,.14-.55,1.06,1.06,0,0,1,.52-.4,4.41,4.41,0,0,1,1-.24,13.83,13.83,0,0,1,1.58-.07,14.37,14.37,0,0,1,1.62.07,4.21,4.21,0,0,1,1,.24,1.13,1.13,0,0,1,.51.4.94.94,0,0,1,.16.55Z"/><path class="cls-1" d="M102.65,67.62a.89.89,0,0,1-.16.54,1.3,1.3,0,0,1-.51.37,3.41,3.41,0,0,1-1,.24,14.16,14.16,0,0,1-1.62.08,13.85,13.85,0,0,1-1.59-.08,3.57,3.57,0,0,1-1-.24.87.87,0,0,1-.66-.91V14.78a1.1,1.1,0,0,1,.14-.55,1,1,0,0,1,.52-.4,4.44,4.44,0,0,1,1-.24,14.14,14.14,0,0,1,1.59-.07,14.49,14.49,0,0,1,1.62.07,4.21,4.21,0,0,1,1,.24,1.25,1.25,0,0,1,.51.4.94.94,0,0,1,.16.55Z"/><path class="cls-1" d="M123.14,64.3c0,1.87-.31,3.12-.93,3.74a4.77,4.77,0,0,1-3.39.93,4.64,4.64,0,0,1-3.28-.91c-.6-.61-.91-1.82-.91-3.64s.31-3.12.93-3.74a4.76,4.76,0,0,1,3.38-.93,4.61,4.61,0,0,1,3.29.91C122.83,61.27,123.14,62.48,123.14,64.3Z"/><path class="cls-1" d="M168.58,61.37c0,.42,0,.79,0,1.11a4.47,4.47,0,0,1-.14.83,2.25,2.25,0,0,1-.26.63,3.39,3.39,0,0,1-.55.68,11.75,11.75,0,0,1-1.66,1.2,19.44,19.44,0,0,1-3.14,1.58,26.06,26.06,0,0,1-4.32,1.31,24.5,24.5,0,0,1-5.31.53,23.25,23.25,0,0,1-9-1.66,18.13,18.13,0,0,1-6.84-4.9,22.35,22.35,0,0,1-4.36-8,36.28,36.28,0,0,1-1.52-11,36.4,36.4,0,0,1,1.64-11.35,24.74,24.74,0,0,1,4.61-8.44,19.69,19.69,0,0,1,7.1-5.28,23.6,23.6,0,0,1,13.47-1.41,28.2,28.2,0,0,1,3.87,1.05,17.24,17.24,0,0,1,3.17,1.47,10.62,10.62,0,0,1,1.92,1.36,5.49,5.49,0,0,1,.69.81,3.26,3.26,0,0,1,.26.65,7.8,7.8,0,0,1,.15.89,10.86,10.86,0,0,1,.06,1.23A8.52,8.52,0,0,1,168.3,26a3.49,3.49,0,0,1-.24.93,1.44,1.44,0,0,1-.37.56.83.83,0,0,1-.54.17,2.9,2.9,0,0,1-1.55-.77A25.44,25.44,0,0,0,163,25.2a21.08,21.08,0,0,0-3.81-1.7,16.82,16.82,0,0,0-5.39-.77,14,14,0,0,0-6.22,1.37,13,13,0,0,0-4.79,4,19.65,19.65,0,0,0-3.09,6.47,31.65,31.65,0,0,0-1.09,8.72,31.89,31.89,0,0,0,1.05,8.6,18,18,0,0,0,3,6.25,12.68,12.68,0,0,0,4.83,3.8A15.78,15.78,0,0,0,154,63.23a17.23,17.23,0,0,0,5.35-.75,20.71,20.71,0,0,0,3.89-1.68c1.07-.62,2-1.18,2.65-1.68a3.16,3.16,0,0,1,1.63-.75.89.89,0,0,1,.47.12.76.76,0,0,1,.32.45,4,4,0,0,1,.18.93C168.56,60.26,168.58,60.77,168.58,61.37Z"/><path class="cls-1" d="M219.76,42.43a39.49,39.49,0,0,1-1.47,11.19,23.28,23.28,0,0,1-4.37,8.48,19,19,0,0,1-7.29,5.38,25.76,25.76,0,0,1-10.25,1.88,26.25,26.25,0,0,1-10-1.72,17.54,17.54,0,0,1-7-5,21.36,21.36,0,0,1-4.1-8.15A42.38,42.38,0,0,1,174,43.3a38.89,38.89,0,0,1,1.46-11,23,23,0,0,1,4.39-8.4,19.35,19.35,0,0,1,7.32-5.34,25.88,25.88,0,0,1,10.24-1.88,26.2,26.2,0,0,1,9.85,1.7,17.88,17.88,0,0,1,7,5,21.15,21.15,0,0,1,4.15,8.07A40.46,40.46,0,0,1,219.76,42.43Zm-7.2.47a40.41,40.41,0,0,0-.77-8.09,18.45,18.45,0,0,0-2.57-6.48,12.44,12.44,0,0,0-4.8-4.29A16.07,16.07,0,0,0,197,22.49a15.15,15.15,0,0,0-7.43,1.67,13.93,13.93,0,0,0-4.88,4.42A18.73,18.73,0,0,0,182,35.05a36.3,36.3,0,0,0-.8,7.77,42.92,42.92,0,0,0,.75,8.31,18.61,18.61,0,0,0,2.52,6.54A12.22,12.22,0,0,0,189.23,62a16.48,16.48,0,0,0,7.49,1.52,15.41,15.41,0,0,0,7.5-1.66,13.57,13.57,0,0,0,4.9-4.49,19.07,19.07,0,0,0,2.65-6.55A37.57,37.57,0,0,0,212.56,42.9Z"/><path class="cls-1" d="M257.41,20.36a9.73,9.73,0,0,1-.08,1.3,2.22,2.22,0,0,1-.28.89,1.39,1.39,0,0,1-.45.5,1.05,1.05,0,0,1-.53.16H237.32v17.4H255a1,1,0,0,1,.53.14,1.31,1.31,0,0,1,.46.45,2.24,2.24,0,0,1,.27.85,8.69,8.69,0,0,1,.08,1.37,7.87,7.87,0,0,1-.08,1.28,2.35,2.35,0,0,1-.27.87,1.7,1.7,0,0,1-.46.52.9.9,0,0,1-.53.17H237.32V67.58a1,1,0,0,1-.16.54,1,1,0,0,1-.55.39,6.91,6.91,0,0,1-1,.24,12.06,12.06,0,0,1-1.66.1,12.35,12.35,0,0,1-1.63-.1,6.56,6.56,0,0,1-1.06-.24,1,1,0,0,1-.56-.39,1.08,1.08,0,0,1-.15-.54V20.2a2.55,2.55,0,0,1,.81-2.16,2.85,2.85,0,0,1,1.72-.61h23a1,1,0,0,1,.53.16,1.42,1.42,0,0,1,.45.51,2.49,2.49,0,0,1,.28.93A10.44,10.44,0,0,1,257.41,20.36Z"/><path class="cls-1" d="M294.63,20.36a9.73,9.73,0,0,1-.08,1.3,2.39,2.39,0,0,1-.28.89,1.39,1.39,0,0,1-.45.5,1.06,1.06,0,0,1-.54.16H274.54v17.4h17.71a1,1,0,0,1,.54.14,1.21,1.21,0,0,1,.45.45,2.07,2.07,0,0,1,.28.85,10.09,10.09,0,0,1,.08,1.37,9.2,9.2,0,0,1-.08,1.28,2.17,2.17,0,0,1-.28.87,1.56,1.56,0,0,1-.45.52.91.91,0,0,1-.54.17H274.54V67.58a1.09,1.09,0,0,1-.16.54,1,1,0,0,1-.56.39,6.46,6.46,0,0,1-1,.24,13.58,13.58,0,0,1-3.29,0,6.32,6.32,0,0,1-1.06-.24,1,1,0,0,1-.56-.39,1.09,1.09,0,0,1-.16-.54V20.2a2.55,2.55,0,0,1,.81-2.16,2.87,2.87,0,0,1,1.72-.61h23a1,1,0,0,1,.54.16,1.42,1.42,0,0,1,.45.51,2.69,2.69,0,0,1,.28.93A10.44,10.44,0,0,1,294.63,20.36Z"/><path class="cls-1" d="M333.43,65.8a9.05,9.05,0,0,1-.08,1.25,2.66,2.66,0,0,1-.28.89,1.34,1.34,0,0,1-.45.51,1.06,1.06,0,0,1-.58.16H307.48a2.8,2.8,0,0,1-1.72-.61,2.55,2.55,0,0,1-.81-2.16V20.2a2.55,2.55,0,0,1,.81-2.16,2.87,2.87,0,0,1,1.72-.61h24.29a1,1,0,0,1,.57.16,1.21,1.21,0,0,1,.42.51A4.16,4.16,0,0,1,333,19a7.14,7.14,0,0,1,.1,1.33,6.48,6.48,0,0,1-.1,1.24,3.52,3.52,0,0,1-.25.87,1.17,1.17,0,0,1-.42.5,1,1,0,0,1-.57.16h-20V39.15h17.17a1,1,0,0,1,.57.17,1.54,1.54,0,0,1,.44.5,2.44,2.44,0,0,1,.25.87,8.3,8.3,0,0,1,.08,1.3,7.31,7.31,0,0,1-.08,1.23,2.4,2.4,0,0,1-.25.83,1.12,1.12,0,0,1-.44.45,1.1,1.1,0,0,1-.57.14H311.75V63H332a1.15,1.15,0,0,1,.58.16,1.39,1.39,0,0,1,.45.5,2.34,2.34,0,0,1,.28.87A9.61,9.61,0,0,1,333.43,65.8Z"/><path class="cls-1" d="M373,65.8a9.05,9.05,0,0,1-.08,1.25,2.66,2.66,0,0,1-.28.89,1.34,1.34,0,0,1-.45.51,1.06,1.06,0,0,1-.58.16H347a2.8,2.8,0,0,1-1.72-.61,2.55,2.55,0,0,1-.81-2.16V20.2a2.55,2.55,0,0,1,.81-2.16,2.87,2.87,0,0,1,1.72-.61h24.29a1,1,0,0,1,.57.16,1.21,1.21,0,0,1,.42.51,4.16,4.16,0,0,1,.25.89,7.14,7.14,0,0,1,.1,1.33,6.48,6.48,0,0,1-.1,1.24,3.52,3.52,0,0,1-.25.87,1.17,1.17,0,0,1-.42.5,1,1,0,0,1-.57.16h-20V39.15h17.17a1,1,0,0,1,.57.17,1.54,1.54,0,0,1,.44.5,2.65,2.65,0,0,1,.26.87,9.88,9.88,0,0,1,.07,1.3,8.69,8.69,0,0,1-.07,1.23,2.62,2.62,0,0,1-.26.83,1.12,1.12,0,0,1-.44.45,1.1,1.1,0,0,1-.57.14H351.3V63h20.29a1.15,1.15,0,0,1,.58.16,1.39,1.39,0,0,1,.45.5,2.34,2.34,0,0,1,.28.87A9.61,9.61,0,0,1,373,65.8Z"/></svg>