<svg id="圖層_1" data-name="圖層 1" xmlns="http://www.w3.org/2000/svg" viewBox="0 0 411.02 411.02"><defs><style>.cls-1{fill:#323333;}</style></defs><title>工作區域 2</title><rect class="cls-1" x="218.36" y="161.69" width="19.2" height="86.29"/><path class="cls-1" d="M239.42,130.66H216.49l.06-1.17c.81-14.94-6.88-26.82-7-26.94-4.56-9.48-5.09-17.29-1.66-23.35,4.9-8.65,16.24-10.87,19.57-11.34v-.11l.45,0,.46,0v.11c3.32.47,14.66,2.69,19.56,11.34,3.44,6.06,2.91,13.87-1.56,23.22-.15.25-7.86,12.16-7.07,27.07Zm-20.61-2.21h18.3a51,51,0,0,1,7.4-27.11c4.07-8.53,4.62-15.66,1.56-21C241.62,72.45,230.75,70.43,228,70c-2.78.4-13.68,2.43-18.12,10.27-3,5.39-2.49,12.51,1.66,21.17A50.83,50.83,0,0,1,218.81,128.45Z"/><path class="cls-1" d="M234.74,138.84H221.19a3.52,3.52,0,1,1,0-7h13.55a3.52,3.52,0,1,1,0,7ZM221.19,134a1.31,1.31,0,0,0,0,2.62h13.55a1.34,1.34,0,0,0,1.32-1.31,1.32,1.32,0,0,0-1.32-1.31Z"/><path class="cls-1" d="M238.27,141.74a3.54,3.54,0,0,0-3.53-3.53H221.19a3.54,3.54,0,0,0-3.53,3.53,3.48,3.48,0,0,0,2.86,3.39,1.47,1.47,0,0,0-.25.77,1.52,1.52,0,0,0,1.2,1.48s0,0,0,.06a1.3,1.3,0,0,0,1.31,1.32h.44a1,1,0,0,0,1,1h1.07a3,3,0,0,0,5.69,0H232a1,1,0,0,0,1-1h.46a1.31,1.31,0,0,0,1.3-1.32s0-.07,0-.12a1.53,1.53,0,0,0,.93-1.42,1.47,1.47,0,0,0-.25-.77A3.48,3.48,0,0,0,238.27,141.74Zm-3.53,1.31H221.19a1.31,1.31,0,0,1-1.31-1.31,1.3,1.3,0,0,1,1.31-1.31h13.55a1.31,1.31,0,1,1,0,2.62Z"/><path class="cls-1" d="M301.1,161q-10.5-9.9-31.66-14.4,18.17-5.85,27.46-17.93a43.68,43.68,0,0,0,9.3-27.37,46.92,46.92,0,0,0-11.85-31.58Q282.49,56,260,50.55,245.14,47,220.54,47H134.83v-.11H100v4.52h20V245.81H100v4.56H228.64q34.35,0,51.08-6.37a54.89,54.89,0,0,0,26.33-20.25q9.6-13.87,9.6-29A44.73,44.73,0,0,0,301.1,161Zm-151.4,82.4V53.93a18.36,18.36,0,0,1,8,5.17c2.36,2.69,3.74,8.5,4.18,17.35V221.08c-.39,7.64-1.47,12.88-3.28,15.63A17.42,17.42,0,0,1,149.7,243.36Zm116.89-15.87q-14.25,12.22-41.4,12.22a151.13,151.13,0,0,1-33.59-3.89V60.13A102.39,102.39,0,0,1,217.84,57q27.9,0,42.45,12.6t14.56,30.45A40.57,40.57,0,0,1,269,121.36a35,35,0,0,1-15.07,13.54v22.45h-.22q14.31,6.28,20.7,17.11a44.3,44.3,0,0,1,6.45,22.8Q280.85,215.26,266.59,227.49Z"/><rect class="cls-1" x="224.15" y="30.41" width="7.84" height="28.73"/><polygon class="cls-1" points="252.03 68.71 244.48 66.62 252.9 36.38 260.45 38.51 252.03 68.71"/><polygon class="cls-1" points="216.38 66.56 209.26 69.88 196.63 42.68 203.74 39.39 216.38 66.56"/><path class="cls-1" d="M237.71,95.42a3.72,3.72,0,0,0-3,1.52,3.62,3.62,0,0,0-5.9,0,3.61,3.61,0,0,0-5.89,0,3.73,3.73,0,0,0-3-1.52,3.78,3.78,0,0,0-3.78,3.78h1.66a2.13,2.13,0,0,1,4.25,0h1.65a2.12,2.12,0,1,1,4.24,0h1.65a2.13,2.13,0,0,1,4.25,0h1.66a2.14,2.14,0,0,1,4.27,0h1.66A3.79,3.79,0,0,0,237.71,95.42Z"/><rect class="cls-1" x="219.85" y="104.31" width="2.21" height="22.98" transform="translate(-23.45 65.82) rotate(-16.1)"/><rect class="cls-1" x="223.68" y="114.69" width="22.98" height="2.21" transform="translate(58.74 309.67) rotate(-73.91)"/><path class="cls-1" d="M71.7,347.59a14,14,0,0,1-.57,4.09,11.71,11.71,0,0,1-4,6,14.35,14.35,0,0,1-3.24,1.89A18.82,18.82,0,0,1,60,360.71a26.41,26.41,0,0,1-4.71.38H43a2.58,2.58,0,0,1-1.59-.57,2.34,2.34,0,0,1-.74-2v-42a2.37,2.37,0,0,1,.74-2A2.63,2.63,0,0,1,43,314h10.7a25,25,0,0,1,6.91.8,12.18,12.18,0,0,1,4.49,2.33,9.71,9.71,0,0,1,2.72,3.75,13.25,13.25,0,0,1,.9,5,12.47,12.47,0,0,1-.4,3.2,10.38,10.38,0,0,1-1.18,2.82,9.78,9.78,0,0,1-2,2.31,10.65,10.65,0,0,1-2.71,1.68,11.46,11.46,0,0,1,3.6,1.32A11.32,11.32,0,0,1,69,339.69a11.57,11.57,0,0,1,2,3.49A12.75,12.75,0,0,1,71.7,347.59Zm-9.43-21.07a9.47,9.47,0,0,0-.47-3.1,5.63,5.63,0,0,0-1.49-2.34,6.53,6.53,0,0,0-2.65-1.48,14.92,14.92,0,0,0-4.32-.51H46.88v15.25H54a10,10,0,0,0,3.92-.64A7,7,0,0,0,60.39,332a6.58,6.58,0,0,0,1.43-2.51A9.79,9.79,0,0,0,62.27,326.52ZM65.11,348a9.48,9.48,0,0,0-.67-3.71,7,7,0,0,0-2-2.69,8.73,8.73,0,0,0-3.23-1.66,18.17,18.17,0,0,0-4.89-.56H46.88v16.59H56a12.3,12.3,0,0,0,3.74-.51,8.42,8.42,0,0,0,2.82-1.51,7,7,0,0,0,1.9-2.49A8.19,8.19,0,0,0,65.11,348Z"/><path class="cls-1" d="M87.2,316.36a4,4,0,0,1-.8,2.88,4.31,4.31,0,0,1-3,.76,4.28,4.28,0,0,1-2.89-.74,5.54,5.54,0,0,1,0-5.7,4.29,4.29,0,0,1,3-.76,4.28,4.28,0,0,1,2.89.74A3.9,3.9,0,0,1,87.2,316.36Zm-.69,43.82a.79.79,0,0,1-.15.49,1.13,1.13,0,0,1-.47.35,3.31,3.31,0,0,1-.91.21,11.89,11.89,0,0,1-1.49.08,11.72,11.72,0,0,1-1.46-.08,3.59,3.59,0,0,1-.92-.21,1,1,0,0,1-.48-.35.94.94,0,0,1-.13-.49V327.43a1,1,0,0,1,.13-.48,1,1,0,0,1,.48-.36,3.55,3.55,0,0,1,.92-.22,12,12,0,0,1,1.46-.07,12.17,12.17,0,0,1,1.49.07,3.27,3.27,0,0,1,.91.22,1.07,1.07,0,0,1,.47.36.85.85,0,0,1,.15.48Z"/><path class="cls-1" d="M103.61,360.18a.79.79,0,0,1-.14.49,1.28,1.28,0,0,1-.47.35,3.4,3.4,0,0,1-.91.21,12.07,12.07,0,0,1-1.5.08,11.54,11.54,0,0,1-1.45-.08,3.58,3.58,0,0,1-.93-.21,1,1,0,0,1-.47-.35.85.85,0,0,1-.13-.49V311.56a.85.85,0,0,1,.6-.87,3.53,3.53,0,0,1,.93-.22,11.79,11.79,0,0,1,1.45-.07,12.35,12.35,0,0,1,1.5.07,3.36,3.36,0,0,1,.91.22,1.2,1.2,0,0,1,.47.36.89.89,0,0,1,.14.51Z"/><path class="cls-1" d="M120.72,360.18a.79.79,0,0,1-.15.49,1.2,1.2,0,0,1-.47.35,3.31,3.31,0,0,1-.91.21,12,12,0,0,1-1.49.08,11.6,11.6,0,0,1-1.46-.08,3.58,3.58,0,0,1-.93-.21,1.07,1.07,0,0,1-.47-.35.94.94,0,0,1-.13-.49V311.56a1.07,1.07,0,0,1,.13-.51,1,1,0,0,1,.47-.36,3.53,3.53,0,0,1,.93-.22,11.85,11.85,0,0,1,1.46-.07,12.28,12.28,0,0,1,1.49.07,3.27,3.27,0,0,1,.91.22,1.13,1.13,0,0,1,.47.36.9.9,0,0,1,.15.51Z"/><path class="cls-1" d="M139.57,357.12c0,1.72-.29,2.87-.86,3.44a4.36,4.36,0,0,1-3.11.86,4.24,4.24,0,0,1-3-.84c-.56-.56-.84-1.67-.84-3.35s.29-2.87.86-3.44a4.38,4.38,0,0,1,3.11-.85,4.28,4.28,0,0,1,3,.83C139.29,354.33,139.57,355.45,139.57,357.12Z"/><path class="cls-1" d="M182.76,354.68c0,.27,0,.51,0,.73a4,4,0,0,1-.11.58,2.55,2.55,0,0,1-.2.48,3.52,3.52,0,0,1-.47.56,13.12,13.12,0,0,1-1.51,1.13,19.08,19.08,0,0,1-2.93,1.55,25.18,25.18,0,0,1-4.06,1.31,22.12,22.12,0,0,1-5.06.54,20.19,20.19,0,0,1-8-1.54,16.5,16.5,0,0,1-6.13-4.54,20.69,20.69,0,0,1-3.9-7.35,33.39,33.39,0,0,1-1.36-10,33.88,33.88,0,0,1,1.45-10.31,22.94,22.94,0,0,1,4.1-7.76,17.78,17.78,0,0,1,6.33-4.87,19.33,19.33,0,0,1,8.17-1.69,20.41,20.41,0,0,1,4.09.4,23.17,23.17,0,0,1,3.66,1,17.4,17.4,0,0,1,3,1.41,10.41,10.41,0,0,1,1.82,1.3,4.09,4.09,0,0,1,.62.71,2.18,2.18,0,0,1,.2.49,3.45,3.45,0,0,1,.11.62c0,.23,0,.49,0,.78a5.75,5.75,0,0,1-.06.89,2.65,2.65,0,0,1-.18.65,1.09,1.09,0,0,1-.31.42.67.67,0,0,1-.44.15,2.67,2.67,0,0,1-1.43-.75,23.56,23.56,0,0,0-2.44-1.65,19.23,19.23,0,0,0-3.7-1.66,16.06,16.06,0,0,0-5.2-.74,14,14,0,0,0-6.08,1.32,13.18,13.18,0,0,0-4.75,3.92,19.25,19.25,0,0,0-3.09,6.36,34.59,34.59,0,0,0-.09,17,17.64,17.64,0,0,0,2.95,6.14,12.58,12.58,0,0,0,4.76,3.8,15.29,15.29,0,0,0,6.45,1.31,15.91,15.91,0,0,0,5.14-.75,20.63,20.63,0,0,0,3.77-1.65,28.58,28.58,0,0,0,2.57-1.66,3,3,0,0,1,1.54-.74.7.7,0,0,1,.37.09.68.68,0,0,1,.23.32,3.2,3.2,0,0,1,.15.64A7,7,0,0,1,182.76,354.68Z"/><path class="cls-1" d="M229,337a37.57,37.57,0,0,1-1.29,10.21,21.7,21.7,0,0,1-3.88,7.78,17,17,0,0,1-6.51,5,22.49,22.49,0,0,1-9.17,1.75,22.17,22.17,0,0,1-9-1.66,15.75,15.75,0,0,1-6.18-4.73,19.93,19.93,0,0,1-3.57-7.51,39.85,39.85,0,0,1-1.15-10,36.93,36.93,0,0,1,1.28-10.05,21.1,21.1,0,0,1,3.87-7.69,17.5,17.5,0,0,1,6.52-4.93A24.91,24.91,0,0,1,218,315a16.05,16.05,0,0,1,6.21,4.69,20,20,0,0,1,3.64,7.43A37.65,37.65,0,0,1,229,337Zm-4.73.4a37.48,37.48,0,0,0-.78-7.84,18.31,18.31,0,0,0-2.59-6.37,12.54,12.54,0,0,0-4.78-4.26,15.94,15.94,0,0,0-7.39-1.55,15.35,15.35,0,0,0-7.37,1.62,13.74,13.74,0,0,0-4.88,4.35,18.4,18.4,0,0,0-2.69,6.37,35.25,35.25,0,0,0-.82,7.68,40.24,40.24,0,0,0,.75,8,18.25,18.25,0,0,0,2.53,6.42,12.38,12.38,0,0,0,4.77,4.27,16,16,0,0,0,7.46,1.55,15.41,15.41,0,0,0,7.46-1.65,13.7,13.7,0,0,0,4.87-4.44,18.84,18.84,0,0,0,2.66-6.45A36.05,36.05,0,0,0,224.25,337.4Z"/><path class="cls-1" d="M263.7,316a4.1,4.1,0,0,1-.08.83,1.51,1.51,0,0,1-.23.6,1.33,1.33,0,0,1-.38.37,1,1,0,0,1-.48.13H244.3V335.8h17.29a1.23,1.23,0,0,1,.47.09.92.92,0,0,1,.38.31,1.41,1.41,0,0,1,.24.58,4.67,4.67,0,0,1,.07.91,4.32,4.32,0,0,1-.07.84,1.64,1.64,0,0,1-.24.6,1.17,1.17,0,0,1-.38.36.88.88,0,0,1-.47.13H244.3v20.74a.77.77,0,0,1-.11.4.72.72,0,0,1-.36.29,2.87,2.87,0,0,1-.68.18,6.15,6.15,0,0,1-1.07.08,6.24,6.24,0,0,1-1.05-.08,2.8,2.8,0,0,1-.7-.18.72.72,0,0,1-.36-.29.77.77,0,0,1-.11-.4V316.29a2.07,2.07,0,0,1,.69-1.8,2.31,2.31,0,0,1,1.35-.49h20.63a.91.91,0,0,1,.48.13,1.15,1.15,0,0,1,.38.38,1.78,1.78,0,0,1,.23.64A4.59,4.59,0,0,1,263.7,316Z"/><path class="cls-1" d="M298,316a4.1,4.1,0,0,1-.08.83,1.37,1.37,0,0,1-.23.6,1.33,1.33,0,0,1-.38.37,1,1,0,0,1-.48.13H278.58V335.8h17.29a1.23,1.23,0,0,1,.47.09.86.86,0,0,1,.38.31,1.41,1.41,0,0,1,.24.58,4.67,4.67,0,0,1,.07.91,4.32,4.32,0,0,1-.07.84,1.64,1.64,0,0,1-.24.6,1.08,1.08,0,0,1-.38.36.88.88,0,0,1-.47.13H278.58v20.74a.77.77,0,0,1-.11.4.72.72,0,0,1-.36.29,2.87,2.87,0,0,1-.68.18,6.15,6.15,0,0,1-1.07.08,6.24,6.24,0,0,1-1.05-.08,2.8,2.8,0,0,1-.7-.18.72.72,0,0,1-.36-.29.77.77,0,0,1-.11-.4V316.29a2.07,2.07,0,0,1,.69-1.8,2.31,2.31,0,0,1,1.35-.49h20.63a.91.91,0,0,1,.48.13,1.15,1.15,0,0,1,.38.38,1.61,1.61,0,0,1,.23.64A4.59,4.59,0,0,1,298,316Z"/><path class="cls-1" d="M333.68,359.12a4.13,4.13,0,0,1-.08.84,1.63,1.63,0,0,1-.23.62,1.15,1.15,0,0,1-.38.38.91.91,0,0,1-.48.13H310.46a2.38,2.38,0,0,1-1.35-.49,2.07,2.07,0,0,1-.69-1.8V316.29a2.07,2.07,0,0,1,.69-1.8,2.31,2.31,0,0,1,1.35-.49h21.72a.91.91,0,0,1,.48.13,1,1,0,0,1,.36.38,2,2,0,0,1,.22.64,4.66,4.66,0,0,1,.07.89,4.15,4.15,0,0,1-.07.83,1.67,1.67,0,0,1-.22.6,1.16,1.16,0,0,1-.36.37,1,1,0,0,1-.48.13H312.86v16.55h16.67a1.07,1.07,0,0,1,.51.13,1.23,1.23,0,0,1,.36.36,1.87,1.87,0,0,1,.22.62,4.84,4.84,0,0,1,.07.9,3.88,3.88,0,0,1-.07.81,1.66,1.66,0,0,1-.22.57,1.13,1.13,0,0,1-.36.33,1.19,1.19,0,0,1-.51.1H312.86v18.78h19.65a.91.91,0,0,1,.48.13,1.29,1.29,0,0,1,.38.36,1.52,1.52,0,0,1,.23.62A4.66,4.66,0,0,1,333.68,359.12Z"/><path class="cls-1" d="M370.1,359.12a4.19,4.19,0,0,1-.07.84,1.82,1.82,0,0,1-.24.62,1,1,0,0,1-.38.38.85.85,0,0,1-.47.13H346.89a2.38,2.38,0,0,1-1.35-.49,2.07,2.07,0,0,1-.69-1.8V316.29a2.07,2.07,0,0,1,.69-1.8,2.31,2.31,0,0,1,1.35-.49h21.72a.85.85,0,0,1,.47.13,1,1,0,0,1,.37.38,2,2,0,0,1,.22.64,4.66,4.66,0,0,1,.07.89,4.15,4.15,0,0,1-.07.83,1.67,1.67,0,0,1-.22.6,1.09,1.09,0,0,1-.37.37,1,1,0,0,1-.47.13H349.29v16.55H366a1,1,0,0,1,.51.13,1.16,1.16,0,0,1,.37.36,1.87,1.87,0,0,1,.22.62,4.84,4.84,0,0,1,.07.9,3.88,3.88,0,0,1-.07.81,1.66,1.66,0,0,1-.22.57,1.06,1.06,0,0,1-.37.33,1.13,1.13,0,0,1-.51.1H349.29v18.78h19.65a.85.85,0,0,1,.47.13,1.09,1.09,0,0,1,.38.36,1.67,1.67,0,0,1,.24.62A4.73,4.73,0,0,1,370.1,359.12Z"/></svg>