<svg id="圖層_1" data-name="圖層 1" xmlns="http://www.w3.org/2000/svg" viewBox="0 0 66.58 64.89"><defs><style>.cls-1{fill:none;stroke:#754f48;stroke-miterlimit:10;}</style></defs><title>工作區域 4</title><path class="cls-1" d="M5.65,32.18V56.4c0,2.53.88,3.41,3.42,3.41H57.52c2.53,0,3.41-.88,3.41-3.42V8c0-2.54-.88-3.42-3.41-3.42H9.18c-2.68,0-3.53.85-3.53,3.54Z"/><path class="cls-1" d="M54,15.27,53.78,15a19.69,19.69,0,0,1-2.86.81,2.55,2.55,0,0,1-1.85-.43,9.11,9.11,0,0,0-10.7-1.53,9.37,9.37,0,0,0-4.57,9.85c.23,1.35-.16,1.8-1.49,1.69a29.77,29.77,0,0,1-11.88-3.55,31.25,31.25,0,0,1-7.86-6.2c-.11.11-.17.15-.2.22a1.68,1.68,0,0,0-.17.42c-.84,4,.08,7.41,3.35,10.05.38.3.49.92.72,1.4a4.77,4.77,0,0,1-1.58.61A15.78,15.78,0,0,1,12,27.87c.29,3.44,2.86,6.24,6.61,7.39.48.14.8.76,1.2,1.15-.41.35-.76.86-1.23,1a18.38,18.38,0,0,1-2.68.42,9,9,0,0,0,7.3,4.81,4.54,4.54,0,0,1,1.42.72c-.25.47-.39,1.09-.77,1.39a19.94,19.94,0,0,1-8.43,3.87c-.69.15-1.38.27-2.4.47a25.76,25.76,0,0,0,10.27,2.4c8.89.21,16.33-2.87,22-9.83a29.28,29.28,0,0,0,6.49-19,2.08,2.08,0,0,1,.87-2,25.72,25.72,0,0,0,2.18-1.93,13.1,13.1,0,0,1-2.43.37,1.58,1.58,0,0,1-1.25-.64c-.12-.33.25-1,.57-1.29C52.4,16.51,53.21,15.91,54,15.27Z"/></svg>